<svg xmlns="http://www.w3.org/2000/svg" xmlns:xlink="http://www.w3.org/1999/xlink" viewBox="0 0 500 500"><defs><style>.cls-1{fill:none;}.cls-2{clip-path:url(#clip-path);}.cls-3{fill:#eee;}.cls-4{clip-path:url(#clip-path-2);}.cls-5{clip-path:url(#clip-path-3);}.cls-6{fill:#002849;}.cls-7{clip-path:url(#clip-path-4);}.cls-8{fill:#22c444;}</style><clipPath id="clip-path"><rect class="cls-1" width="500" height="500"/></clipPath><clipPath id="clip-path-2"><rect class="cls-1" x="27" y="58.5" width="446" height="383"/></clipPath><clipPath id="clip-path-3"><circle class="cls-1" cx="250.4" cy="221.05" r="213.6"/></clipPath><clipPath id="clip-path-4"><rect class="cls-1" x="-15" y="21.09" width="265.4" height="335.39"/></clipPath></defs><title>logoRedesign_April_2017</title><g id="Layer_9" data-name="Layer 9"><g class="cls-2"><rect class="cls-3" width="500" height="500"/><rect class="cls-3" x="-15" y="45" width="297" height="353"/><g class="cls-4"><g class="cls-5"><circle class="cls-6" cx="250.4" cy="221.05" r="213.6"/><circle class="cls-3" cx="250.4" cy="221.05" r="197.69"/><rect class="cls-6" x="98.16" y="-132.07" width="304.49" height="304.49" transform="translate(59.07 182.97) rotate(-45)"/><rect class="cls-3" x="114.07" y="-116.16" width="272.68" height="272.68" transform="translate(59.07 182.97) rotate(-45)"/></g><g class="cls-7"><g class="cls-5"><circle class="cls-8" cx="250.4" cy="221.05" r="213.6"/><circle class="cls-3" cx="250.4" cy="221.05" r="197.69"/><rect class="cls-8" x="98.16" y="-132.07" width="304.49" height="304.49" transform="translate(59.07 182.97) rotate(-45)"/><rect class="cls-3" x="114.07" y="-116.16" width="272.68" height="272.68" transform="translate(59.07 182.97) rotate(-45)"/><rect class="cls-3" x="44.99" y="344.66" width="131.79" height="21.81"/><circle class="cls-1" cx="250.18" cy="221.28" r="213.6"/></g></g><rect class="cls-3" x="114.07" y="-116.16" width="272.68" height="272.68" transform="translate(59.07 182.97) rotate(-45)"/></g><rect class="cls-3" x="-15" y="345" width="145" height="11"/><rect class="cls-3" x="125" y="236" width="241" height="128"/><rect class="cls-3" x="100" y="26" width="308" height="37"/><rect class="cls-3" x="107" y="334" width="33" height="23"/></g></g></svg>